<?xml version="1.0" standalone="no"?>
<!DOCTYPE svg PUBLIC "-//W3C//DTD SVG 20010904//EN"
 "http://www.w3.org/TR/2001/REC-SVG-20010904/DTD/svg10.dtd">
<svg version="1.0" xmlns="http://www.w3.org/2000/svg"
 width="1280.000000pt" height="1280.000000pt" viewBox="0 0 1280.000000 1280.000000"
 preserveAspectRatio="xMidYMid meet">
<g transform="translate(0.000000,1280.000000) scale(0.100000,-0.100000)"
fill="#000000" stroke="none">
<path d="M6235 12784 c-1156 -38 -2246 -364 -3200 -958 -719 -448 -1358 -1049
-1842 -1731 -773 -1092 -1175 -2354 -1175 -3695 0 -504 50 -957 158 -1430 491
-2149 2081 -3909 4169 -4616 522 -177 1033 -280 1610 -325 207 -16 686 -16
890 0 1002 78 1912 356 2745 838 1444 836 2501 2194 2954 3793 235 827 299
1725 185 2583 -184 1391 -820 2676 -1815 3671 -1099 1098 -2539 1752 -4084
1855 -178 12 -464 19 -595 15z"/>
</g>
</svg>
