<?xml version="1.0" standalone="no"?>
<!DOCTYPE svg PUBLIC "-//W3C//DTD SVG 20010904//EN"
 "http://www.w3.org/TR/2001/REC-SVG-20010904/DTD/svg10.dtd">
<svg version="1.0" xmlns="http://www.w3.org/2000/svg"
 width="900.000000pt" height="771.000000pt" viewBox="0 0 900.000000 771.000000"
 preserveAspectRatio="xMidYMid meet">
<metadata>
Created by potrace 1.10, written by Peter Selinger 2001-2011
</metadata>
<g transform="translate(0.000000,771.000000) scale(0.100000,-0.100000)"
fill="#000000" stroke="none">
<path d="M5065 6291 c-51 -26 -75 -46 -87 -70 -9 -19 -28 -46 -42 -60 -17 -17
-26 -38 -26 -58 0 -17 -7 -36 -15 -43 -9 -7 -15 -29 -15 -52 0 -25 -5 -41 -15
-44 -11 -5 -15 -23 -15 -74 0 -48 -4 -71 -15 -80 -11 -9 -15 -35 -15 -105 0
-69 -4 -96 -15 -105 -10 -9 -15 -39 -17 -113 l-3 -102 -97 -3 -97 -3 -16 31
-16 30 -375 0 -375 0 -10 -30 -11 -30 -171 0 c-135 -1 -176 -4 -191 -15 -43
-32 -96 -16 -96 30 0 18 -6 38 -14 44 -8 7 -18 26 -21 42 -4 16 -10 29 -15 29
-5 0 -11 14 -15 30 -4 17 -10 30 -15 30 -4 0 -11 12 -14 26 -4 15 -14 33 -21
41 -8 8 -15 23 -15 33 0 10 -7 20 -15 24 -8 3 -15 14 -15 25 0 23 -184 211
-206 211 -7 0 -34 20 -58 44 -25 24 -56 46 -70 50 -14 3 -26 11 -26 16 0 6 -6
10 -14 10 -8 0 -57 23 -110 50 -53 28 -107 50 -121 50 -13 0 -40 -13 -58 -30
-19 -16 -39 -30 -44 -30 -6 0 -22 -9 -37 -21 -19 -15 -26 -30 -26 -54 0 -18
-7 -41 -15 -49 -14 -13 -16 -61 -15 -355 l0 -339 30 -56 c17 -31 30 -64 30
-74 0 -34 40 -97 101 -158 50 -51 60 -66 57 -90 -2 -20 -12 -33 -31 -42 -15
-8 -32 -23 -36 -35 -11 -27 -39 -52 -68 -61 -13 -4 -23 -15 -23 -25 0 -10 -7
-24 -15 -31 -10 -8 -15 -37 -17 -93 -3 -74 -5 -82 -27 -93 -13 -7 -28 -18 -32
-26 -5 -7 -9 -93 -8 -191 0 -150 -2 -182 -15 -196 -23 -26 -24 -546 -1 -571 8
-9 17 -32 19 -51 2 -19 4 -37 5 -41 0 -5 7 -8 15 -8 30 0 46 -30 46 -88 1 -34
7 -65 15 -76 8 -11 15 -32 15 -48 0 -20 8 -31 30 -43 23 -12 30 -22 30 -45 0
-16 6 -35 14 -43 8 -8 16 -29 18 -48 2 -27 9 -37 35 -48 27 -12 33 -20 33 -46
0 -17 7 -40 15 -51 8 -10 15 -33 15 -49 0 -17 5 -36 11 -42 6 -6 17 -22 23
-35 6 -12 20 -24 30 -26 33 -7 56 -40 56 -81 0 -52 8 -71 31 -71 21 0 39 -28
39 -62 0 -13 5 -29 11 -35 7 -7 15 -29 18 -50 5 -33 10 -38 36 -41 41 -5 55
-19 55 -57 0 -18 7 -38 15 -45 8 -7 15 -21 15 -31 0 -12 10 -21 26 -25 34 -9
61 -36 66 -66 2 -15 11 -24 26 -26 30 -5 62 -36 62 -62 0 -10 6 -23 14 -27 8
-4 16 -26 18 -48 2 -33 7 -41 26 -43 14 -2 27 -14 33 -30 14 -38 39 -62 61
-62 13 0 24 -11 31 -30 6 -17 16 -31 22 -31 5 -1 20 -3 31 -4 29 -3 44 -13 44
-30 0 -22 34 -35 92 -35 31 -1 61 -7 72 -15 11 -8 32 -15 47 -15 21 0 31 -7
41 -28 10 -20 22 -28 45 -30 17 -2 37 -10 43 -18 9 -10 35 -14 95 -14 l83 0
11 -30 c5 -17 16 -30 24 -30 8 0 26 -9 40 -20 22 -17 40 -20 144 -20 l118 0
17 -30 17 -30 420 0 419 0 11 30 c10 30 11 30 81 30 46 0 82 6 102 16 17 9 42
17 56 19 26 3 52 29 52 51 0 17 41 42 76 46 20 2 33 12 42 31 8 17 21 27 35
27 37 0 116 42 119 64 2 12 13 23 28 26 18 4 26 14 30 35 4 23 11 31 30 33 36
5 58 34 62 78 3 38 4 39 43 42 47 4 55 13 55 69 0 45 23 83 50 83 23 0 40 20
40 50 0 14 7 34 15 44 8 11 15 33 15 48 0 21 7 32 25 40 41 19 68 83 67 158
-2 71 0 77 41 103 23 15 27 24 27 60 0 24 7 52 15 63 21 28 21 490 0 518 -9
12 -15 42 -15 77 0 53 -2 58 -35 84 l-36 27 2 104 c2 83 -1 108 -14 122 -11
12 -17 41 -19 97 -3 75 -4 79 -28 85 -20 5 -26 13 -28 42 -2 20 -10 42 -18 48
-8 7 -14 21 -14 32 0 12 -11 23 -30 29 -28 10 -30 15 -30 59 0 30 -5 52 -15
60 -10 9 -15 31 -15 73 0 42 -6 69 -20 92 -11 19 -20 37 -19 42 5 26 -4 43
-24 48 -24 6 -63 77 -69 125 -2 16 -11 26 -28 30 -17 4 -26 14 -28 30 -2 14
-16 37 -32 51 -16 15 -30 37 -32 50 -2 16 -11 25 -26 27 -30 5 -59 34 -64 64
-2 16 -11 24 -28 26 -34 5 -57 27 -64 63 -4 20 -11 29 -25 29 -11 0 -25 9 -31
21 -15 28 -4 69 18 69 27 0 42 20 42 55 0 22 9 40 30 60 20 19 30 39 30 59 0
17 7 40 15 50 22 29 22 408 0 426 -9 7 -15 29 -15 52 0 25 -5 41 -15 44 -10 4
-15 20 -15 45 0 26 -5 42 -15 45 -8 4 -15 14 -15 24 0 10 -6 25 -13 32 -8 7
-17 26 -21 41 -3 15 -11 27 -16 27 -6 0 -10 9 -10 19 0 11 -7 26 -15 35 -8 8
-15 19 -15 24 0 15 -80 165 -99 187 -10 11 -26 34 -34 50 -24 46 -72 87 -114
95 -21 4 -45 10 -53 13 -8 3 -46 -11 -85 -32z m102 -263 c13 -12 23 -29 23
-39 0 -9 7 -22 15 -29 8 -7 15 -21 15 -31 0 -10 4 -20 9 -23 10 -7 81 -148 81
-163 0 -5 9 -18 20 -28 12 -11 20 -31 20 -50 0 -18 7 -38 15 -45 8 -7 15 -20
15 -30 0 -10 7 -23 15 -30 22 -18 19 -32 -15 -70 -26 -29 -30 -42 -30 -88 0
-38 -6 -65 -21 -88 -13 -21 -20 -48 -19 -71 3 -61 1 -69 -21 -97 l-22 -27 -29
35 c-19 23 -38 36 -53 36 -62 0 -70 25 -25 77 24 27 30 43 30 82 0 31 -5 53
-15 61 -11 9 -15 33 -15 89 0 52 -5 83 -15 97 -8 10 -15 33 -15 50 0 17 -7 37
-15 44 -8 7 -15 20 -15 30 0 10 -7 23 -15 30 -10 9 -15 32 -15 77 0 44 5 69
15 79 9 9 15 34 15 61 0 29 6 53 17 65 20 23 22 23 50 -4z m-2542 -148 c3 -5
14 -10 24 -10 10 0 24 -7 31 -15 7 -8 20 -15 29 -15 10 0 30 -13 46 -30 16
-16 36 -30 44 -30 25 0 191 -162 191 -187 0 -11 7 -26 15 -33 21 -18 21 -216
0 -244 -8 -11 -15 -39 -15 -62 0 -46 -30 -94 -58 -94 -10 0 -58 41 -107 90
-49 50 -96 90 -103 90 -23 0 -72 57 -72 83 0 13 -13 49 -30 80 -30 56 -30 58
-30 215 0 87 3 162 7 165 9 10 21 9 28 -3z m1883 -654 c6 -28 -15 -36 -94 -36
-79 0 -108 16 -84 45 10 12 31 15 94 13 70 -3 81 -6 84 -22z m312 -51 c8 -7
38 -15 65 -17 44 -3 50 -6 53 -27 5 -31 -12 -41 -70 -41 -61 0 -78 7 -78 35 0
31 -19 36 -117 34 -83 -2 -109 5 -84 20 24 15 214 12 231 -4z m-729 -85 c4 0
9 -10 13 -22 3 -15 22 -31 53 -46 43 -20 63 -22 195 -22 l147 0 13 -27 c13
-27 17 -28 96 -31 64 -2 82 -6 82 -17 0 -9 -10 -15 -22 -15 -17 0 -28 -11 -40
-39 -10 -20 -18 -42 -18 -48 0 -17 -44 -61 -65 -65 -11 -2 -26 -16 -33 -31
-10 -20 -20 -27 -41 -27 -35 0 -81 -35 -81 -61 0 -12 -11 -24 -27 -32 -39 -17
-43 -24 -43 -98 0 -64 1 -68 35 -93 19 -15 35 -33 35 -41 0 -21 50 -55 82 -55
23 0 31 -6 39 -30 9 -24 17 -30 39 -30 31 0 60 -22 60 -46 0 -9 11 -14 34 -14
19 0 42 -7 50 -15 23 -23 717 -22 749 0 12 8 35 15 52 15 27 1 33 7 57 61 l27
60 68 -3 c61 -3 68 -5 71 -25 2 -12 10 -27 18 -33 8 -7 14 -27 14 -45 0 -18 7
-38 15 -45 9 -8 15 -36 17 -83 3 -70 4 -72 31 -75 26 -3 27 -5 27 -71 0 -57 3
-71 23 -88 12 -12 31 -23 42 -25 15 -2 21 -12 23 -40 2 -20 10 -42 18 -48 10
-9 14 -36 14 -103 0 -72 4 -94 18 -110 13 -15 17 -40 19 -121 1 -55 3 -106 3
-113 0 -7 12 -18 28 -25 24 -12 27 -20 30 -65 2 -29 9 -56 17 -63 22 -18 22
-312 0 -330 -8 -7 -15 -28 -15 -47 0 -29 -5 -36 -30 -46 -33 -12 -32 -11 -30
-123 1 -67 -1 -73 -34 -113 -29 -35 -36 -51 -36 -86 0 -38 -4 -46 -27 -57 -21
-10 -29 -22 -33 -48 -6 -43 -37 -80 -67 -80 -17 0 -23 -6 -23 -21 0 -11 -12
-34 -27 -50 -21 -22 -29 -42 -33 -81 -4 -45 -8 -53 -27 -56 -12 -2 -27 -10
-33 -18 -7 -8 -28 -14 -46 -14 -28 0 -36 -5 -44 -25 -15 -41 -42 -63 -80 -67
-25 -2 -38 -10 -47 -28 -8 -17 -23 -27 -45 -30 -23 -4 -37 -13 -46 -32 -7 -16
-16 -29 -20 -29 -4 -1 -19 -3 -34 -5 -16 -1 -38 -10 -50 -18 -12 -9 -41 -16
-65 -16 -36 0 -44 -4 -55 -27 l-13 -28 -390 0 -390 0 -13 28 c-13 26 -15 27
-100 27 -70 0 -93 4 -117 20 -16 11 -38 17 -50 14 -31 -8 -75 12 -75 35 0 23
-19 31 -76 31 -40 0 -44 2 -44 24 0 28 -16 36 -75 36 -26 0 -47 6 -55 15 -7 8
-27 15 -45 15 -28 0 -35 5 -44 30 -8 25 -15 30 -44 30 -19 0 -40 6 -47 14 -6
8 -28 16 -48 18 -28 2 -38 8 -40 23 -3 11 -13 28 -23 38 -10 10 -19 24 -19 33
0 8 -12 19 -27 25 -38 14 -63 38 -63 61 0 12 -12 24 -33 33 -38 16 -53 31 -58
59 -2 10 -12 23 -21 27 -10 5 -26 13 -35 17 -25 12 -65 89 -72 137 -5 31 -11
40 -31 45 -15 4 -26 14 -28 27 -4 25 -40 60 -67 65 -16 3 -21 12 -23 55 -2 29
-9 56 -17 63 -8 7 -15 27 -15 44 0 34 -15 56 -39 56 -21 0 -51 30 -51 51 0 10
-6 24 -14 32 -8 8 -16 32 -18 53 -3 33 -7 40 -28 43 -30 4 -42 19 -35 47 3 13
-3 31 -15 44 -11 13 -20 37 -20 57 0 25 -4 33 -18 33 -27 0 -42 20 -42 56 0
17 -7 37 -15 44 -9 8 -15 30 -15 59 0 26 -6 53 -12 59 -7 7 -15 36 -18 64 -4
42 -10 55 -28 64 -33 16 -35 20 -38 70 -2 26 -10 54 -19 63 -12 14 -15 48 -15
181 0 141 2 166 17 182 15 17 17 43 18 199 l0 180 33 27 c31 26 32 30 32 98 0
46 5 77 15 90 8 10 15 26 15 35 0 18 52 59 74 59 9 0 19 12 22 28 8 28 35 53
68 62 11 3 23 17 26 30 4 15 15 26 30 30 15 4 26 15 30 30 5 20 13 26 40 28
19 2 42 10 50 17 8 7 31 15 50 17 27 2 35 8 40 28 5 20 13 26 42 28 20 2 42
10 48 18 7 8 30 14 51 14 33 0 38 3 41 27 4 34 28 43 28 11 0 -25 -33 -60 -65
-68 -11 -3 -21 -15 -23 -25 -2 -11 -17 -33 -32 -50 -15 -16 -30 -39 -32 -50
-2 -11 -14 -22 -28 -25 -16 -4 -26 -14 -28 -29 -5 -29 -34 -58 -64 -63 -13 -2
-24 -11 -26 -23 -5 -28 -40 -63 -66 -67 -12 -2 -22 -11 -24 -24 -2 -12 -16
-34 -33 -49 -16 -16 -29 -36 -29 -45 0 -25 -21 -40 -56 -40 -25 0 -33 -5 -38
-24 -3 -14 -18 -31 -34 -38 -46 -22 -40 -98 8 -98 10 0 23 -7 30 -15 7 -9 29
-15 55 -15 26 0 48 6 55 15 17 20 113 21 130 1 6 -8 21 -16 33 -18 13 -2 23
-13 27 -28 5 -20 13 -26 43 -28 31 -3 39 -9 51 -35 7 -18 23 -41 35 -51 11
-11 21 -25 21 -32 0 -7 7 -20 16 -28 13 -14 49 -16 237 -16 122 0 227 4 232 8
6 4 16 19 22 35 11 24 18 27 62 27 30 0 53 5 61 14 6 8 28 16 48 18 29 2 37 8
42 28 5 20 13 26 45 30 32 4 40 10 45 30 5 20 13 26 40 28 40 4 75 33 84 68 4
13 13 24 20 24 37 0 46 28 46 144 0 118 -7 141 -45 148 -12 2 -21 13 -23 28
-5 30 -36 53 -82 60 -26 4 -36 11 -40 30 l-6 25 -239 0 c-232 0 -240 -1 -244
-20 -5 -27 -19 -35 -67 -35 -48 0 -91 -29 -96 -63 -2 -18 -10 -23 -44 -25 -29
-2 -43 1 -47 11 -8 21 21 57 59 73 21 9 34 22 36 36 2 19 10 24 41 26 31 3 39
8 51 35 7 18 23 41 36 52 12 11 26 30 31 43 7 19 16 22 67 22 36 0 66 6 78 15
12 9 42 14 80 15 62 0 84 11 84 41 0 10 4 19 10 21 8 2 243 1 281 -2z m907
-407 c2 -8 -6 -13 -22 -13 -17 0 -26 5 -26 16 0 19 41 16 48 -3z m-1124 -19
c9 -3 16 -16 16 -29 0 -25 17 -35 61 -35 26 0 29 -3 29 -32 0 -17 -9 -51 -21
-75 -18 -38 -25 -43 -54 -43 -18 0 -38 -7 -45 -15 -7 -8 -28 -15 -46 -15 -28
0 -36 -5 -45 -27 -14 -38 -25 -43 -104 -43 -45 0 -77 -6 -89 -15 -15 -12 -51
-15 -152 -15 -147 0 -176 11 -189 70 -5 21 -13 30 -26 30 -10 0 -19 7 -19 15
0 8 7 15 15 15 9 0 18 -7 21 -15 5 -12 32 -15 158 -15 145 0 153 1 173 23 11
12 24 32 27 44 4 11 17 24 29 27 24 6 67 85 67 122 0 11 3 24 7 27 8 9 166 9
187 1z m814 -6 c7 -7 12 -19 12 -28 0 -26 42 -58 80 -62 26 -2 36 -8 38 -23 2
-11 10 -27 17 -35 7 -8 15 -24 17 -35 3 -19 12 -20 135 -23 l131 -3 10 31 c8
22 17 30 36 30 50 0 56 8 56 76 0 54 3 65 21 74 26 14 69 5 69 -15 0 -28 45
-67 86 -74 l39 -6 0 -70 0 -70 -33 -3 c-22 -2 -38 -12 -49 -30 -10 -15 -22
-30 -28 -34 -5 -4 -126 -8 -267 -8 l-256 0 -12 35 -12 35 -67 0 c-76 0 -82 4
-119 78 -24 47 -21 61 22 101 14 14 26 32 26 41 0 31 26 40 48 18z"/>
<path d="M3115 3965 c-3 -8 -7 -21 -9 -29 -3 -8 -15 -16 -28 -18 -22 -3 -23
-7 -23 -88 0 -82 1 -84 25 -90 15 -4 26 -14 28 -27 2 -11 16 -33 33 -48 16
-16 29 -36 29 -45 0 -21 20 -40 41 -40 9 0 19 -10 23 -23 3 -12 15 -32 26 -45
18 -19 31 -22 108 -22 95 0 99 -2 125 -42 l17 -28 629 0 c663 0 644 -1 653 45
3 19 12 20 147 23 106 2 149 6 164 17 13 9 45 15 79 15 53 0 59 2 73 29 11 22
23 31 47 33 22 2 36 10 44 27 7 13 17 26 22 30 6 3 86 4 178 1 l169 -5 0 -25
c0 -19 -6 -26 -23 -28 -16 -2 -27 -14 -34 -33 -9 -27 -14 -29 -58 -29 -29 0
-52 -6 -60 -14 -6 -8 -21 -16 -33 -18 -14 -2 -25 -13 -30 -33 -5 -16 -22 -57
-38 -90 l-29 -61 0 -242 0 -243 -30 -10 c-25 -9 -30 -16 -30 -44 0 -18 -7 -38
-15 -45 -10 -9 -15 -32 -15 -77 0 -60 -2 -65 -28 -80 -32 -19 -72 -86 -72
-121 0 -15 -10 -29 -30 -40 -16 -9 -30 -22 -30 -28 0 -6 -9 -23 -21 -38 -16
-20 -29 -26 -60 -26 -50 0 -79 -15 -79 -40 0 -11 -3 -20 -7 -21 -15 -1 -268
-1 -280 0 -7 1 -13 10 -13 22 0 14 -10 24 -30 32 -16 6 -30 15 -30 18 0 4 -13
10 -28 14 -19 4 -32 15 -39 35 -6 17 -18 30 -27 30 -8 0 -22 14 -31 30 -11 21
-23 30 -41 30 -39 0 -62 17 -84 60 l-20 40 -73 0 c-39 0 -77 -4 -82 -8 -6 -4
-20 -28 -33 -54 l-23 -47 26 -56 c23 -47 30 -55 54 -55 30 0 81 -34 81 -53 0
-24 18 -39 48 -43 44 -5 102 -39 116 -66 8 -17 22 -24 48 -26 20 -2 42 -10 48
-18 7 -8 21 -14 31 -14 14 0 21 -9 26 -30 l6 -30 224 0 224 0 6 30 c3 19 12
30 22 30 10 0 26 7 37 15 10 8 29 15 41 15 34 0 53 11 53 30 0 11 15 26 38 37
22 11 43 31 52 50 9 19 27 37 43 42 21 8 27 16 27 39 0 16 13 53 30 83 16 30
30 69 30 89 0 42 9 58 41 74 20 9 25 20 27 63 2 29 9 57 17 63 12 10 15 56 15
262 0 228 1 249 18 254 35 11 47 21 64 55 14 27 25 35 55 39 28 4 39 10 41 25
5 28 42 65 64 65 10 0 21 8 24 18 3 9 12 30 20 45 10 20 14 62 14 136 0 99 -2
109 -22 128 -13 12 -32 23 -43 25 -11 2 -22 14 -25 28 l-6 25 -224 0 -224 0
-6 -25 c-5 -23 -11 -25 -77 -30 -40 -3 -78 -11 -85 -17 -7 -8 -38 -13 -75 -13
-60 0 -64 -2 -75 -27 -7 -16 -13 -30 -14 -32 -2 -2 -59 -2 -128 -2 -110 2
-126 0 -135 -16 -9 -17 -43 -18 -566 -21 -544 -2 -558 -2 -590 18 -18 11 -44
20 -59 20 -16 0 -26 6 -26 14 0 31 -30 46 -94 46 -44 0 -67 5 -76 15 -7 8 -18
15 -25 15 -14 0 -55 76 -55 102 0 32 -12 48 -36 48 -19 0 -26 7 -30 30 -5 23
-12 30 -31 30 -13 0 -26 -7 -28 -15z"/>
</g>
</svg>
